<?xml version="1.0" encoding="UTF-8"?><svg id="Lager_1" xmlns="http://www.w3.org/2000/svg" viewBox="0 0 881 599"><defs><style>.cls-1{fill:#242424;}</style></defs><g id="Lager_1-2"><path class="cls-1" d="M135.15,219.96h0L0,523.52l152.19,67.76,67.39-151.37c37.42-84.05-.38-182.53-84.43-219.96Z"/><path class="cls-1" d="M50.68,0c-37.42,84.05.38,182.53,84.43,219.96l67.76-152.19L50.68,0Z"/><path class="cls-1" d="M594.5,26c-158.22,0-286.5,128.27-286.5,286.5s128.28,286.5,286.5,286.5,286.5-128.27,286.5-286.5S752.73,26,594.5,26ZM594.5,464.51c-83.95,0-152.01-68.06-152.01-152.01s68.05-152.02,152.01-152.02,152.01,68.07,152.01,152.02-68.05,152.01-152.01,152.01Z"/></g></svg>